<svg viewBox="0 0 26 24" xmlns="http://www.w3.org/2000/svg">
    <rect x="1" y="4.2404" width="24" height="15.519" rx="2" fill="#fff"/>
    <rect x="11.723" y="4.2404" width="2.5532" height="15.519" fill="#C10045"/>
    <rect x="1" y="10.788" width="24" height="2.4904" fill="#C10045"/>
    <path d="m7.533 9.9346-6.4588-4.2842s-0.074278 0.04687-0.074221 1.1983v3.0859h6.533z" fill="#222D80"/>
    <path d="m10.957 4.2404h-7.5928l7.5928 4.9609v-4.9609z" fill="#222D80"/>
    <path d="m10.083 9.9346-8.1884-5.3701s-0.20163 0.08608-0.36719 0.30078c-0.18127 0.23509-0.24609 0.36328-0.24609 0.36328l7.2746 4.706h1.5271z" fill="#C10045"/>
    <path d="m7.4177 14.25s-6.3491 4.2435-6.37 4.1327c-0.091953-0.4868-0.04294-1.469-0.04294-1.469v-2.6637h6.413z" fill="#222D80"/>
    <path d="m10.957 19.76h-7.1489l7.1489-4.8497v4.8497z" fill="#222D80"/>
    <path d="m10.813 14.174-8.4231 5.5219s-0.26941-0.0954-0.44901-0.2133c-0.23858-0.1566-0.34239-0.2694-0.34239-0.2694l7.684-5.0392h1.5305z" fill="#C10045"/>
    <path d="m18.483 9.9346s6.3605-4.2825 6.3854-4.2248c0.1758 0.40764 0.13 1.3012 0.13 1.3012v2.9236h-6.5154z" fill="#222D80"/>
    <path d="m15.042 4.2404h7.5513l-7.5513 5.0834v-5.0834z" fill="#222D80"/>
    <path d="m15.04 10.019 8.6199-5.6728c0.2539 0.11397 0.2304 0.11872 0.3945 0.23269 0.2103 0.14607 0.2461 0.23724 0.3945 0.38463l-7.9323 5.0555h-1.4766z" fill="#C10045"/>
    <path d="m18.483 14.25s6.3908 4.1042 6.4016 4.0569c0.158-0.6897 0.1138-1.1696 0.1138-1.1696v-2.8873h-6.5154z" fill="#222D80"/>
    <path d="m15.042 19.76h7.1489l-7.1489-4.8497v4.8497z" fill="#222D80"/>
    <path d="m15.635 14.226 8.2588 5.3232s0.2023-0.1146 0.3365-0.2167c0.1797-0.1367 0.3242-0.289 0.3242-0.289l-7.4844-4.8175h-1.4351z" fill="#C10045"/>
</svg>
