<svg xmlns="http://www.w3.org/2000/svg" width="104" height="52" fill="none" viewBox="0 0 104 52">
    <path fill="#fff" fill-rule="evenodd" d="M5.616.283h.819V7.79h-.67L.962 1.634V7.79H.144V.283H.93l4.686 6.016V.283zM12.206 7.918c-2.264 0-3.783-1.79-3.783-3.871 0-2.08 1.54-3.893 3.804-3.893 2.263 0 3.783 1.79 3.783 3.872 0 2.08-1.54 3.892-3.805 3.892zm0-6.981c-1.7 0-2.912 1.373-2.912 3.089s1.233 3.11 2.933 3.11c1.7 0 2.912-1.373 2.912-3.09 0-1.715-1.233-3.11-2.933-3.11zM23.12 7.79l-2.157-2.917h-2.126V7.79h-.839V.283h3.198c1.637 0 2.69.89 2.69 2.241 0 1.255-.85 1.984-2.02 2.198L24.15 7.79H23.12zm-1.987-6.724h-2.296V4.11h2.285c1.116 0 1.913-.579 1.913-1.555 0-.933-.701-1.49-1.902-1.49zM29.348 7.918c-2.338 0-3.784-1.715-3.784-3.871 0-2.07 1.499-3.893 3.73-3.893 1.254 0 2.03.365 2.774.997l-.542.644c-.574-.504-1.212-.858-2.264-.858-1.647 0-2.826 1.405-2.826 3.089 0 1.801 1.137 3.131 2.943 3.131.85 0 1.637-.333 2.147-.75V4.54h-2.264V3.78h3.072v2.992a4.485 4.485 0 0 1-2.987 1.147zM39.815 1.055h-4.537v2.563h4.06v.772h-4.06v2.628h4.59v.772h-5.43V.283h5.377v.772zM44.438 3.629c1.658.364 2.423.975 2.423 2.134 0 1.297-1.062 2.134-2.54 2.134-1.18 0-2.146-.397-3.039-1.201l.521-.622c.776.707 1.52 1.061 2.55 1.061 1 0 1.658-.525 1.658-1.286 0-.708-.372-1.105-1.934-1.438-1.71-.375-2.497-.933-2.497-2.177 0-1.2 1.03-2.059 2.444-2.059 1.084 0 1.86.311 2.614.923l-.489.654c-.69-.569-1.381-.815-2.146-.815-.967 0-1.584.536-1.584 1.222 0 .719.383 1.116 2.02 1.47zM.218 10.201h.84v7.507h-.84v-7.507zM6.031 17.708H3.449v-7.507H6.03c2.338 0 3.953 1.62 3.953 3.743 0 2.123-1.615 3.764-3.953 3.764zm0-6.724H4.288v5.941h1.743c1.881 0 3.082-1.287 3.082-2.96s-1.2-2.981-3.082-2.981zM17.094 17.708l-2.157-2.917h-2.125v2.917h-.84v-7.507h3.199c1.636 0 2.688.89 2.688 2.241 0 1.255-.85 1.985-2.019 2.2l2.285 3.066h-1.031zm-1.987-6.724h-2.295v3.046h2.284c1.116 0 1.913-.58 1.913-1.555 0-.933-.701-1.491-1.902-1.491zM25.245 10.973h-4.537v2.563h4.06v.773h-4.06v2.627h4.59v.772h-5.43v-7.507h5.377v.772zM30.017 17.708h-.85v-6.724H26.67v-.783h5.844v.783h-2.497v6.724zM37.116 17.708h-.85v-6.724h-2.497v-.783h5.844v.783h-2.497v6.724zM43.908 13.547c1.658.365 2.423.976 2.423 2.134 0 1.298-1.063 2.134-2.54 2.134-1.18 0-2.146-.396-3.039-1.2l.52-.623c.776.708 1.52 1.062 2.551 1.062 1 0 1.658-.525 1.658-1.287 0-.708-.372-1.105-1.934-1.437-1.711-.376-2.497-.933-2.497-2.177 0-1.201 1.03-2.06 2.444-2.06 1.084 0 1.86.312 2.614.923l-.489.654c-.69-.568-1.381-.815-2.147-.815-.966 0-1.583.536-1.583 1.223 0 .718.383 1.115 2.02 1.47zM53.6 10.984h-4.506v2.681h4.028v.772h-4.028v3.271h-.839v-7.507H53.6v.783zM58.734 17.837c-2.263 0-3.783-1.791-3.783-3.872 0-2.08 1.54-3.893 3.804-3.893s3.784 1.791 3.784 3.872c0 2.08-1.541 3.893-3.805 3.893zm0-6.982c-1.7 0-2.911 1.373-2.911 3.089s1.232 3.11 2.932 3.11 2.912-1.373 2.912-3.089c0-1.715-1.232-3.11-2.933-3.11zM69.648 17.708l-2.157-2.917h-2.125v2.917h-.84v-7.507h3.2c1.636 0 2.688.89 2.688 2.241 0 1.255-.85 1.985-2.02 2.2l2.285 3.066h-1.03zm-1.987-6.724h-2.295v3.046h2.285c1.115 0 1.913-.58 1.913-1.555 0-.933-.702-1.491-1.903-1.491zM78.012 12.078c0 .987-.595 1.49-1.18 1.748.882.268 1.594.783 1.594 1.823 0 1.298-1.073 2.06-2.699 2.06h-3.305V10.2h3.167c1.467 0 2.423.73 2.423 1.877zm-.85.118c0-.75-.585-1.233-1.647-1.233H73.25v2.584h2.2c1.01 0 1.71-.461 1.71-1.351zm.414 3.4c0-.826-.68-1.298-1.976-1.298H73.25v2.649h2.498c1.126 0 1.827-.504 1.827-1.351zM86.386 14.502c0 2.187-1.243 3.324-3.103 3.324-1.838 0-3.092-1.137-3.092-3.26v-4.365h.84v4.311c0 1.62.85 2.531 2.274 2.531 1.37 0 2.242-.836 2.242-2.477v-4.365h.84v4.3zM94.059 10.201h.818v7.507h-.67l-4.802-6.155v6.155h-.819v-7.507h.787l4.686 6.017V10.2zM99.777 17.708h-2.582v-7.507h2.582c2.338 0 3.953 1.62 3.953 3.743 0 2.123-1.615 3.764-3.953 3.764zm0-6.724h-1.743v5.941h1.743c1.881 0 3.081-1.287 3.081-2.96s-1.2-2.981-3.081-2.981zM.155 22.519h28.282v4.656H.155v-4.656zM47.18 22.519h56.621v4.656h-56.62v-4.656zM33.021 22.519h9.352v4.656h-9.352v-4.656zM20.907 44.993c0 3.744-3.008 6.78-6.719 6.78-3.71 0-6.718-3.036-6.718-6.78 0-3.745 3.008-6.78 6.718-6.78s6.719 3.035 6.719 6.78zm-6.719-5.651c-3.092 0-5.599 2.53-5.599 5.65 0 3.121 2.507 5.651 5.6 5.651 3.091 0 5.598-2.53 5.598-5.65 0-3.121-2.507-5.651-5.599-5.651zM35.464 44.993c0 3.744-3.008 6.78-6.719 6.78-3.71 0-6.718-3.036-6.718-6.78 0-3.745 3.008-6.78 6.718-6.78 3.711 0 6.719 3.035 6.719 6.78zm-6.719-5.651c-3.092 0-5.598 2.53-5.598 5.65 0 3.121 2.506 5.651 5.598 5.651s5.6-2.53 5.6-5.65c0-3.121-2.508-5.651-5.6-5.651z" clip-rule="evenodd"/>
    <path fill="#fff" fill-rule="evenodd" d="M13.629 38.776c0 3.745-3.009 6.781-6.72 6.781-3.71 0-6.718-3.036-6.718-6.78 0-3.745 3.008-6.78 6.719-6.78 3.71 0 6.719 3.035 6.719 6.78zm-6.72-5.65c-3.092 0-5.598 2.53-5.598 5.65 0 3.121 2.506 5.651 5.599 5.651 3.092 0 5.599-2.53 5.599-5.65 0-3.121-2.507-5.651-5.6-5.651zM28.186 38.776c0 3.745-3.008 6.781-6.719 6.781-3.71 0-6.719-3.036-6.719-6.78 0-3.745 3.008-6.78 6.719-6.78 3.71 0 6.719 3.035 6.719 6.78zm-6.719-5.65c-3.092 0-5.599 2.53-5.599 5.65 0 3.121 2.507 5.651 5.599 5.651s5.599-2.53 5.599-5.65c0-3.121-2.507-5.651-5.599-5.651zM42.743 38.776c0 3.745-3.009 6.781-6.72 6.781-3.71 0-6.718-3.036-6.718-6.78 0-3.745 3.009-6.78 6.719-6.78 3.71 0 6.719 3.035 6.719 6.78zm-6.72-5.65c-3.091 0-5.598 2.53-5.598 5.65 0 3.121 2.507 5.651 5.599 5.651s5.599-2.53 5.599-5.65c0-3.121-2.507-5.651-5.6-5.651z" clip-rule="evenodd"/>
    <path fill="#fff" fill-rule="evenodd" d="M7.497 45.6a6.867 6.867 0 0 1 .006-1.283l1.16-.24a5.777 5.777 0 0 0-.06 1.319l-1.106.204zM22.05 45.556a6.83 6.83 0 0 1 .006-1.201l1.159-.25a5.752 5.752 0 0 0-.057 1.258l-.506.265-.602-.072zm8.472-5.923c-.39-.133-.8-.222-1.225-.264l-.076-.597.074-.538a6.65 6.65 0 0 1 1.174.203l.053 1.196zM16.003 39.645a5.52 5.52 0 0 0-1.31-.28l-.505-1.153a6.635 6.635 0 0 1 1.77.237l.045 1.196z" clip-rule="evenodd"/>
</svg>
